<?xml version="1.0" encoding="UTF-8" standalone="no"?>
<!-- Created with Inkscape (http://www.inkscape.org/) -->

<svg
   xmlns:dc="http://purl.org/dc/elements/1.1/"
   xmlns:cc="http://creativecommons.org/ns#"
   xmlns:rdf="http://www.w3.org/1999/02/22-rdf-syntax-ns#"
   xmlns:svg="http://www.w3.org/2000/svg"
   xmlns="http://www.w3.org/2000/svg"
   xmlns:sodipodi="http://sodipodi.sourceforge.net/DTD/sodipodi-0.dtd"
   xmlns:inkscape="http://www.inkscape.org/namespaces/inkscape"
   version="1.1"
   id="svg1420"
   width="1655.9742"
   height="472.39346"
   viewBox="0 0 1655.9743 472.39347"
   sodipodi:docname="samri_ndq.svg"
   inkscape:version="0.92.2 2405546, 2018-03-11">
  <metadata
     id="metadata1426">
    <rdf:RDF>
      <cc:Work
         rdf:about="">
        <dc:format>image/svg+xml</dc:format>
        <dc:type
           rdf:resource="http://purl.org/dc/dcmitype/StillImage" />
        <dc:title></dc:title>
      </cc:Work>
    </rdf:RDF>
  </metadata>
  <defs
     id="defs1424" />
  <sodipodi:namedview
     pagecolor="#ffffff"
     bordercolor="#666666"
     borderopacity="1"
     objecttolerance="10"
     gridtolerance="10"
     guidetolerance="10"
     inkscape:pageopacity="0"
     inkscape:pageshadow="2"
     inkscape:window-width="2048"
     inkscape:window-height="1088"
     id="namedview1422"
     showgrid="false"
     showguides="false"
     fit-margin-top="0"
     fit-margin-left="0"
     fit-margin-right="0"
     fit-margin-bottom="0"
     inkscape:zoom="0.5111307"
     inkscape:cx="1041.0645"
     inkscape:cy="-36.103778"
     inkscape:window-x="0"
     inkscape:window-y="27"
     inkscape:window-maximized="1"
     inkscape:current-layer="svg1420">
    <sodipodi:guide
       position="-38.063798,40.79284"
       orientation="1,0"
       id="guide1499"
       inkscape:locked="false" />
  </sodipodi:namedview>
  <path
     style="fill:#e92b2a;stroke-width:1.33333337"
     d="m 421.369,472.15743 c -0.0696,-1.4747 1.16872,-3.5416 26.26063,-43.8323 11.3061,-18.1545 21.67076,-33.6045 23.03256,-34.3333 3.22933,-1.7283 152.18703,-1.7526 149.23365,-0.024 -1.14638,0.6708 -33.24638,3.133 -71.33333,5.4715 -46.20798,2.8372 -70.1538,4.8069 -71.9683,5.92 -1.49561,0.9174 -12.38792,14.1869 -24.20513,29.4878 -22.53207,29.1745 -30.92749,39.2725 -31.02008,37.3106 z"
     id="path1515"
     inkscape:connector-curvature="0" />
  <path
     style="fill:#e92b2a;stroke-width:1.33333337"
     d="m 376.00982,470.16653 c -0.0163,-1.0085 7.45788,-16.3709 16.60929,-34.1389 9.15143,-17.7679 16.25143,-32.6928 15.77779,-33.1664 -0.47366,-0.4737 -79.2465,-0.8612 -175.05079,-0.8612 -137.359616,0 -174.626946,0.3524 -176.258066,1.6666 -5.18675,4.1793 -41.35998,49.2693 -40.29832,50.232 0.65474,0.5937 38.99044,2.0937 85.190436,3.3334 69.19982,1.8568 118.21107,3.4643 151.33334,4.9634 2.84901,0.1289 1.29102,0.5906 -4,1.1854 -13.42727,1.5093 -245.6513164,1.4695 -248.0000064,-0.043 -1.77188998,-1.1407 -1.76120998,-1.7086 0.0936,-4.9796 3.76851,-6.6457 49.1025504,-66.6875 50.8597704,-67.3603 0.9423,-0.3608 85.916076,-0.3444 188.830646,0.036 150.93285,0.5584 187.24482,1.0244 187.77652,2.41 0.36253,0.9447 -10.17167,17.5062 -23.40935,36.8032 -26.69468,38.9137 -29.41161,42.5958 -29.45489,39.9186 z"
     id="path1513"
     inkscape:connector-curvature="0" />
  <path
     style="fill:#e92b2a;stroke-width:1.33333337"
     d="m 717.98016,464.62863 c 7.33333,-0.6685 39.13333,-2.747 70.66666,-4.6189 280.36088,-16.6428 531.54088,-47.2691 728.66658,-88.8458 47.6337,-10.0467 54.7999,-11.9695 61.2396,-16.4323 8.2224,-5.6981 35.4235,-34.16443 33.6772,-35.24368 -0.8356,-0.51641 -7.3837,-0.17868 -14.5513,0.75055 -62.3264,8.08001 -205.5587,24.21563 -293.6988,33.08613 -103.8312,10.4497 -131.1434,12.7077 -129.1095,10.6738 0.8121,-0.8122 15.5807,-2.891 70.4428,-9.9154 100.6872,-12.8919 232.4349,-31.18753 356,-49.43736 53.0009,-7.82793 54.6684,-8.03776 54.6608,-6.87845 -0.013,1.70508 -31.6608,37.00621 -45.8844,51.17821 -7.8405,7.8122 -18.2728,16.8955 -23.1827,20.1851 l -8.927,5.9811 -41.3334,7.4012 c -240.1388,42.9994 -458.0655,67.2691 -719.33321,80.1096 -49.54794,2.4351 -119.54848,3.8489 -99.33333,2.0062 z"
     id="path1511"
     inkscape:connector-curvature="0" />
  <path
     style="fill:#000000;stroke-width:1.33333337"
     d="m 609.33472,0 0.79492,4.6660156 c 0.64058,3.75891 16.18048,62.9866274 18.55274,70.7109374 0.3451,1.12366 -4.42217,10.484161 -10.59375,20.800781 -6.17157,10.316606 -33.97329,57.396656 -61.78125,104.623046 -45.23108,76.81615 -67.07528,114.05598 -129.32813,220.49414 -18.51437,31.6553 -23.02933,39.84905 -22.95703,41.65235 0.0985,2.456 7.48026,-8.39557 143.33203,-210.72461 49.64919,-73.94435 90.73602,-133.94501 91.30469,-133.33399 1.21009,1.3002 53.32031,245.11311 53.32031,249.47461 0,1.6211 -6.21375,13.90367 -13.81054,27.29297 -15.90646,28.0351 -19.93354,35.711 -19.14454,36.5 0.51057,0.5106 14.39915,-19.01483 28.80079,-40.49023 3.07364,-4.5833 6.10588,-8.33204 6.73828,-8.33204 0.6324,0 2.1518,4.64874 3.37695,10.33204 4.12267,19.1248 6.3342,27.66023 7.48828,28.89843 1.24776,1.3389 0.72205,-5.18937 -2.22461,-27.60937 -1.03943,-7.9085 -1.89062,-16.49121 -1.89062,-19.07031 0,-3.9746 12.31857,-23.21826 80.83398,-126.28711 44.45811,-66.87905 81.34689,-122.15736 81.97656,-122.8418 0.62968,-0.68445 1.47801,-0.91261 1.88477,-0.50586 0.40675,0.40676 2.01565,23.83315 3.57617,52.05859 l 2.83789,51.32032 -20.05859,35.85156 c -26.56868,47.4906 -27.18948,48.75397 -21.51953,43.72656 2.37158,-2.10284 50.85214,-59.40545 144.8477,-171.20703 8.3233,-9.9 15.6959,-18.20134 16.3847,-18.44727 0.7761,-0.27708 1.1236,39.53062 0.9121,104.66602 l -0.3418,105.11523 -25.6347,17.33204 c -14.0989,9.5334 -26.3699,18.0834 -27.2676,19 -3.9874,4.0716 3.6202,0.81516 26.9023,-11.51954 13.5667,-7.1874 25.116,-12.82619 25.666,-12.52929 0.55,0.2968 1.0457,11.75414 1.0997,25.46093 0.054,13.70671 0.5378,27.62188 1.0742,30.92188 0.9418,5.7928 1.0067,5.8619 1.8926,2 0.5046,-2.2 2.127,-17.47677 3.6054,-33.94727 1.47841,-16.4706 3.13121,-30.38276 3.67381,-30.91796 1.6597,-1.6364 46.7829,-25.13477 48.2657,-25.13477 0.7635,0 1.3886,0.70024 1.3886,1.55664 0,0.85641 -4.8292,21.61747 -10.7324,46.13477 -5.9032,24.5173 -10.4998,45.26647 -10.2148,46.10937 0.8576,2.5367 3.9061,-4.4918 23.664,-54.5332 10.4094,-26.36415 19.9075,-48.89952 21.1055,-50.08008 1.1981,-1.18056 19.4592,-12.78384 40.5801,-25.7832 l 38.4004,-23.63477 63.5996,26.99414 c 78.1499,33.17067 91.3544,38.5909 92.1289,37.81641 1.0785,-1.07846 -3.3068,-3.64504 -69.4531,-40.64258 -35.8243,-20.0376 -64.9264,-37.0607 -64.6699,-37.83008 0.2563,-0.76939 49.1787,-31.38317 108.7148,-68.03125 59.5361,-36.64809 108.0424,-67.25802 107.793,-68.02148 -0.2496,-0.763464 -2.7125,-2.141039 -5.4727,-3.060549 -17.4558,-5.81474 -306.5645,-89.6539941 -309.0469,-89.6210941 -2.9719,0.03934 -2.9839,0.087669 -0.3965,1.6054687 1.4667,0.86036 17.0072,8.3138704 34.5352,16.5625004 17.528,8.24863 32.3766,15.503546 32.9961,16.123046 0.9823,0.982381 -55.8253,149.741298 -58.0215,151.937498 -0.4608,0.46079 -10.0969,-1.96209 -21.4141,-5.38281 -20.6373,-6.23788 -24.7617,-7.10121 -24.7617,-5.18945 0,0.56576 8.9972,7.31576 19.9942,15 12.0807,8.44159 20,14.84636 20,16.18164 0.01,3.23258 -22.4083,67.87803 -24.3477,70.21484 -4.1201,4.96447 -54.4632,37.17755 -54.2773,34.73047 0.021,-0.26887 5.9731,-66.48958 13.2265,-147.15625 7.2534,-80.66666 12.7479,-147.123884 12.211,-147.683594 -1.3935,-1.4527 -3.7425,1.453564 -28.8457,35.683594 -12.36951,16.86667 -27.38581,37.267318 -33.36921,45.33398 -5.9834,8.06666 -24.8243,33.56602 -41.8672,56.66602 -17.043,23.1 -31.6211,42.23127 -32.3964,42.51367 -0.98665,0.35933 -1.18594,-26.95478 -0.66411,-91 C 892.74509,60.268814 892.55944,22 891.86792,22 c -1.7906,0 -0.9351,-1.480578 -98.49414,170.66602 -50.07922,88.36667 -91.84504,161.51196 -92.8125,162.54296 -2.3598,2.5151 -1.91968,5.11039 -10.51171,-61.875 -4.04472,-31.53334 -11.56404,-89.87825 -16.71094,-129.65429 -5.1469,-39.77605 -9.35938,-74.374178 -9.35938,-76.884768 0,-3.226 4.14149,-12.409586 14.1211,-31.316406 C 685.86683,40.764586 691.98156,28.00497 691.68824,27.125 691.39492,26.24503 682.3092,33.731189 671.49683,43.761719 660.68446,53.792249 651.32935,62 650.70777,62 650.08617,62 641.69736,49.550644 632.06714,34.333984 622.43693,19.117314 613.38269,5.1673144 611.94605,3.3339844 Z m 569.36918,54.902344 c 2.394,0.131917 32.9502,11.070389 69.5078,24.90039 85.4987,32.344726 79.4107,29.804376 77.0176,32.134766 -1.0539,1.02625 -39.3219,25.91167 -85.0411,55.29883 -45.7193,29.38717 -84.1199,53.39315 -85.3339,53.34765 -1.2141,-0.0454 -10.8,-4.0844 -21.3028,-8.97656 -16.456,-7.66508 -19.0137,-9.26653 -18.4961,-11.58398 0.7793,-3.4892 62.1363,-143.683322 63.5039,-145.099612 0.018,-0.0185 0.067,-0.02574 0.1446,-0.02148 z m -71.1602,173.499996 c 1.8524,0.0295 5.1391,1.17225 11.5078,3.82813 6.4201,2.67734 11.4812,5.44519 11.2461,6.15039 -0.2351,0.7052 -8.5033,6.58447 -18.373,13.06445 -9.8698,6.47999 -18.3953,11.80469 -18.9453,11.83399 -0.55,0.0293 -1,-0.75639 -1,-1.74805 0,-2.60004 11.8409,-30.55319 13.7734,-32.51563 0.4034,-0.40963 0.949,-0.62669 1.791,-0.61328 z"
     id="path1509"
     inkscape:connector-curvature="0" />
  <path
     style="fill:#000000;stroke-width:1.33333337"
     d="m 363.79027,384.03233 c -0.34889,-0.3489 -44.39889,-0.7816 -97.88889,-0.9615 -112.48122,-0.3784 -175.192266,-1.3433 -173.166786,-2.6644 0.7816,-0.5098 61.981606,-4.8679 135.999996,-9.6846 74.0184,-4.8167 137.11565,-9.0843 140.21612,-9.4836 l 5.63721,-0.7261 48.36279,-65.87485 c 26.59953,-36.23116 48.36278,-66.56764 48.36278,-67.41441 0,-1.39475 -174.78091,-59.78008 -179.18679,-59.85712 -1.01942,-0.0179 -10.40468,4.46759 -20.85618,9.96759 -10.45148,5.5 -19.36741,10 -19.81318,10 -2.41759,0 0.5858,-4.19059 13.85616,-19.33334 8.06666,-9.20484 14.66666,-17.2498 14.66666,-17.87769 0,-0.62789 -3.89042,-7.06228 -8.64538,-14.29863 -7.87714,-11.98786 -10.03711,-16.49034 -7.91091,-16.49034 0.42739,0 6.56605,4.57204 13.64149,10.16009 7.07546,5.58805 13.51414,10.40941 14.3082,10.71412 0.79407,0.30472 52.4054,-24.72243 114.69186,-55.61587 C 468.35185,53.69824 520.81349,27.84399 522.64683,27.1378 l 3.33333,-1.28399 -2.66667,2.66923 C 521.84683,29.99112 475.40755,58.97401 420.11511,92.92947 364.82266,126.88493 319.6868,155.26667 319.8132,156 c 0.1264,0.73334 9.66568,3.80406 21.19839,6.82383 28.78891,7.5382 141.87913,37.55589 151.26805,40.15128 l 7.63283,2.10993 16.41856,-10.87585 c 9.03021,-5.98172 16.84544,-10.87585 17.36718,-10.87585 2.39635,0 -0.25268,3.97844 -17.45374,26.21281 -10.1213,13.08295 -43.46684,56.18719 -74.1012,95.78719 -30.63436,39.59999 -57.46277,73.64999 -59.61868,75.66669 -3.25939,3.0489 -5.11443,3.6666 -11.00991,3.6666 -3.89954,0 -7.37553,-0.2854 -7.72441,-0.6343 z"
     id="path1503"
     inkscape:connector-curvature="0" />
  <path
     style="fill:#000000;stroke-width:1.33333337"
     d="m 1366.7233,291.33334 c -0.027,-1.1 0.7841,-4.7 1.8006,-8 1.6856,-5.47175 87.2299,-246.70553 89.5382,-252.49643 0.8857,-2.2221 1.9616,-2.39812 9.7898,-1.60174 12.1372,1.23473 14.7948,2.04856 14.7948,4.53051 0,2.29492 -6.865,17.89115 -69.3572,157.56766 -41.3545,92.43153 -46.4841,103.44732 -46.5662,100 z"
     id="path1456"
     inkscape:connector-curvature="0" />
</svg>
